{"title":"F1 2011 Malaysia Race","uid":6309248,"size":2813473619,"categoryP":"video","categoryS":"tv_shows","magnet":"?xt=urn:btih:bf289aa576ae23fa10dd5b3fcea9508c6e4bd143&amp;dn=F1+2011+Malaysia+Race&amp;tr=udp%3A%2F%2Ftracker.openbittorrent.com%3A80&amp;tr=udp%3A%2F%2Fopen.demonii.com%3A1337&amp;tr=udp%3A%2F%2Ftracker.coppersurfer.tk%3A6969&amp;tr=udp%3A%2F%2Fexodus.desync.com%3A6969","seeders":1,"leechers":1,"uploader":"jorrell0733","files":2,"time":1302471788,"description":"Formula One 2011 Season\n\nRace 2: Malaysian GP, Kuala Lumpur. Sepang Circuit\n\nRecord Source: BBC One\nOriginal Format: DVR-MS File\nDate: Sunday 10th April 2011\nTime: 08:00 to 11:15\n\nMalaysian Grand Prix Race\n\nJake Humphrey, Martin Brundle, David Coulthard &amp; Eddie Jordan present the F1 coverage and build up to the 2nd Race \nmeeting of the 2011 Formula One season, The Malaysian Grand Prix, from Sepang in Kuala Lumpur.\n\n\nRecoded Method:\n\nComplete name                    : F1 2011 Malaysia GP Race.mp4\nFormat                           : MPEG-4\nFormat profile                   : Base Media\nCodec ID                         : isom\nFile size                        : 2.62 GiB\nDuration                         : 3h 14mn\nOverall bit rate                 : 1 933 Kbps\nEncoded date                     : UTC 2011-04-10 18:03:35\nTagged date                      : UTC 2011-04-10 18:03:35\nWriting application              : Lavf51.12.1\n\nVideo\nID                               : 1\nFormat                           : MPEG-4 Visual\nFormat profile                   : Simple@L1\nFormat settings, BVOP            : No\nFormat settings, QPel            : No\nFormat settings, GMC             : No warppoints\nFormat settings, Matrix          : Default (H.263)\nCodec ID                         : 20\nDuration                         : 3h 14mn\nBit rate mode                    : Variable\nBit rate                         : 1 800 Kbps\nWidth                            : 1 024 pixels\nHeight                           : 576 pixels\nDisplay aspect ratio             : 16:9\nFrame rate mode                  : Constant\nFrame rate                       : 25.000 fps\nColor space                      : YUV\nChroma subsampling               : 4:2:0\nBit depth                        : 8 bits\nScan type                        : Progressive\nCompression mode                 : Lossy\nBits/(Pixel*Frame)               : 0.122\nStream size                      : 2.44 GiB (93%)\nWriting library                  : Lavc51.40.4\nEncoded date                     : UTC 2011-04-10 18:03:35\nTagged date                      : UTC 2011-04-10 18:03:35\n\nAudio\nID                               : 2\nFormat                           : AAC\nFormat/Info                      : Advanced Audio Codec\nFormat profile                   : LC\nCodec ID                         : 40\nDuration                         : 3h 14mn\nBit rate mode                    : Variable\nBit rate                         : 128 Kbps\nChannel(s)                       : 2 channels\nChannel positions                : Front: L R\nSampling rate                    : 48.0 KHz\nCompression mode                 : Lossy\nStream size                      : 178 MiB (7%)\nEncoded date                     : UTC 2011-04-10 18:03:35\nTagged date                      : UTC 2011-04-10 18:03:35\n\n29\n\nEnjoy\n\nThe BlackKnight","torrent":{"xt":"urn:btih:bf289aa576ae23fa10dd5b3fcea9508c6e4bd143","amp;dn":"F1+2011+Malaysia+Race","amp;tr":["udp%3A%2F%2Ftracker.openbittorrent.com%3A80","udp%3A%2F%2Fopen.demonii.com%3A1337","udp%3A%2F%2Ftracker.coppersurfer.tk%3A6969","udp%3A%2F%2Fexodus.desync.com%3A6969"],"infoHash":"bf289aa576ae23fa10dd5b3fcea9508c6e4bd143","infoHashBuffer":{"type":"Buffer","data":[191,40,154,165,118,174,35,250,16,221,91,63,206,169,80,140,110,75,209,67]},"announce":[],"urlList":[]}}